# Simple low-poly drone (body + 4 arms + 4 rotor hubs)
# Units are arbitrary; rescale in your engine as needed.
o drone
v -0.300 -0.100 -0.300
v 0.300 -0.100 -0.300
v 0.300 0.100 -0.300
v -0.300 0.100 -0.300
v -0.300 -0.100 0.300
v 0.300 -0.100 0.300
v 0.300 0.100 0.300
v -0.300 0.100 0.300
v 0.300 -0.030 -0.060
v 0.900 -0.030 -0.060
v 0.900 0.030 -0.060
v 0.300 0.030 -0.060
v 0.300 -0.030 0.060
v 0.900 -0.030 0.060
v 0.900 0.030 0.060
v 0.300 0.030 0.060
v -0.900 -0.030 -0.060
v -0.300 -0.030 -0.060
v -0.300 0.030 -0.060
v -0.900 0.030 -0.060
v -0.900 -0.030 0.060
v -0.300 -0.030 0.060
v -0.300 0.030 0.060
v -0.900 0.030 0.060
v -0.060 -0.030 0.300
v 0.060 -0.030 0.300
v 0.060 0.030 0.300
v -0.060 0.030 0.300
v -0.060 -0.030 0.900
v 0.060 -0.030 0.900
v 0.060 0.030 0.900
v -0.060 0.030 0.900
v -0.060 -0.030 -0.900
v 0.060 -0.030 -0.900
v 0.060 0.030 -0.900
v -0.060 0.030 -0.900
v -0.060 -0.030 -0.300
v 0.060 -0.030 -0.300
v 0.060 0.030 -0.300
v -0.060 0.030 -0.300
v 0.750 -0.020 -0.180
v 1.050 -0.020 -0.180
v 1.050 0.080 -0.180
v 0.750 0.080 -0.180
v 0.750 -0.020 0.180
v 1.050 -0.020 0.180
v 1.050 0.080 0.180
v 0.750 0.080 0.180
v -1.050 -0.020 -0.180
v -0.750 -0.020 -0.180
v -0.750 0.080 -0.180
v -1.050 0.080 -0.180
v -1.050 -0.020 0.180
v -0.750 -0.020 0.180
v -0.750 0.080 0.180
v -1.050 0.080 0.180
v -0.180 -0.020 0.750
v 0.180 -0.020 0.750
v 0.180 0.080 0.750
v -0.180 0.080 0.750
v -0.180 -0.020 1.050
v 0.180 -0.020 1.050
v 0.180 0.080 1.050
v -0.180 0.080 1.050
v -0.180 -0.020 -1.050
v 0.180 -0.020 -1.050
v 0.180 0.080 -1.050
v -0.180 0.080 -1.050
v -0.180 -0.020 -0.750
v 0.180 -0.020 -0.750
v 0.180 0.080 -0.750
v -0.180 0.080 -0.750
f 5 6 7 8
f 2 1 4 3
f 1 5 8 4
f 6 2 3 7
f 4 8 7 3
f 1 2 6 5
f 13 14 15 16
f 10 9 12 11
f 9 13 16 12
f 14 10 11 15
f 12 16 15 11
f 9 10 14 13
f 21 22 23 24
f 18 17 20 19
f 17 21 24 20
f 22 18 19 23
f 20 24 23 19
f 17 18 22 21
f 29 30 31 32
f 26 25 28 27
f 25 29 32 28
f 30 26 27 31
f 28 32 31 27
f 25 26 30 29
f 37 38 39 40
f 34 33 36 35
f 33 37 40 36
f 38 34 35 39
f 36 40 39 35
f 33 34 38 37
f 45 46 47 48
f 42 41 44 43
f 41 45 48 44
f 46 42 43 47
f 44 48 47 43
f 41 42 46 45
f 53 54 55 56
f 50 49 52 51
f 49 53 56 52
f 54 50 51 55
f 52 56 55 51
f 49 50 54 53
f 61 62 63 64
f 58 57 60 59
f 57 61 64 60
f 62 58 59 63
f 60 64 63 59
f 57 58 62 61
f 69 70 71 72
f 66 65 68 67
f 65 69 72 68
f 70 66 67 71
f 68 72 71 67
f 65 66 70 69
